<svg width="55" height="55" viewBox="0 0 55 55" fill="none" xmlns="http://www.w3.org/2000/svg">
<g id="search_24px">
<path id="icon/action/search_24px" fill-rule="evenodd" clip-rule="evenodd" d="M34.2948 32.6677H36.1052L47.5406 44.126L44.126 47.5406L32.6677 36.1052V34.2948L32.0489 33.6531C29.4364 35.899 26.0448 37.251 22.3552 37.251C14.1281 37.251 7.45935 30.5823 7.45935 22.3552C7.45935 14.1281 14.1281 7.45938 22.3552 7.45938C30.5823 7.45938 37.251 14.1281 37.251 22.3552C37.251 26.0448 35.8989 29.4365 33.6531 32.049L34.2948 32.6677ZM12.0427 22.3552C12.0427 28.0615 16.6489 32.6677 22.3552 32.6677C28.0614 32.6677 32.6677 28.0615 32.6677 22.3552C32.6677 16.649 28.0614 12.0427 22.3552 12.0427C16.6489 12.0427 12.0427 16.649 12.0427 22.3552Z" fill="black" fill-opacity="0.54"/>
</g>
</svg>
